<svg width="184" height="41" viewBox="0 0 184 41" fill="none" xmlns="http://www.w3.org/2000/svg">
<path d="M62.2248 6.33867C61.4588 2.6301 60.6582 1.3726 56.3437 1.3726C54.5132 1.3726 53.0159 1.8756 51.9946 2.74093C51.1205 3.45281 50.7137 4.36077 50.7137 5.47334C50.7137 6.47934 51.2633 7.70274 51.96 8.35494C52.9077 9.25437 54.2925 10.0472 56.5991 11.1939C59.4509 12.639 61.6103 13.4659 63.1812 15.2264C63.9471 16.096 64.7174 17.7159 64.7174 19.4806C64.7174 21.352 64.0553 23.04 62.6705 24.2677C61.1343 25.636 58.7239 26.5312 55.4696 26.5312C53.3535 26.5312 50.7613 26.0623 48.6365 25.3078C48.3076 23.0741 47.9095 21.5609 47.4335 19.9794L48.7144 19.6512C49.8828 24.0844 51.9297 25.1629 55.8028 25.1629C57.4819 25.1629 59.0571 24.694 60.1865 23.8286C61.3203 22.959 62.0517 21.7058 62.0517 20.086C62.0517 18.6494 61.6492 17.7841 60.8833 16.8804C59.7149 15.5121 57.7372 14.651 55.6211 13.6066C53.3924 12.4898 50.3242 10.8699 49.264 9.39504C48.6019 8.45724 48.1691 7.26794 48.1691 5.93797C48.1691 4.38634 48.8226 2.84324 50.3588 1.68804C51.6657 0.682036 53.6737 0 56.5255 0C58.8623 0 60.7664 0.289865 62.6316 1.006C62.8436 2.48517 63.1768 4.42897 63.5057 6.0488L62.2248 6.33867Z" fill="black"/>
<path d="M70.2912 17.8906C70.2912 15.1156 70.8062 13.321 71.7928 12.0592C72.667 11.0532 73.8787 10.5544 75.337 10.5544C76.869 10.5544 78.1153 11.0574 78.9548 12.0592C79.9415 13.321 80.4565 15.1198 80.4565 17.8906C80.4565 20.8063 79.8376 22.6435 78.9202 23.7945C78.0807 24.728 76.9079 25.3077 75.376 25.3077C73.8441 25.3077 72.667 24.728 71.8318 23.7945C70.9187 22.6435 70.2912 20.8106 70.2912 17.8906ZM67.6644 17.8608C67.6644 21.1345 68.5429 23.2915 69.9623 24.6257C71.4293 25.8875 73.182 26.4288 75.3717 26.4288C77.6696 26.4288 79.4655 25.8491 80.9238 24.5532C82.3129 23.2233 83.1525 21.1004 83.1525 17.8608C83.1525 15.0175 82.3519 12.818 80.9238 11.4155C79.4958 10.0813 77.8167 9.43335 75.3717 9.43335C73.0262 9.43335 71.3514 10.077 69.9234 11.3772C68.465 12.7796 67.6644 15.0133 67.6644 17.8608Z" fill="black"/>
<path d="M88.0468 10.9808H85.3422V9.82986H88.0468V7.56209C88.0468 5.36253 88.5964 3.70859 89.8038 2.48519C90.678 1.65396 91.9243 1.07849 93.5298 1.07849C95.0271 1.07849 95.9055 1.47492 96.6369 1.93956C97.6971 2.62586 98.2078 3.52529 98.2078 4.16897C98.2078 4.89363 97.8399 5.29006 97.1778 5.29006C96.3037 5.29006 95.9748 4.5313 95.5723 3.73843C95.1699 2.94556 94.6939 2.19106 93.5644 2.19106C92.833 2.19106 92.2488 2.44256 91.7339 2.98393C91.0068 3.84926 90.5698 5.14087 90.5698 7.6985V9.8256H95.2088V10.9765H90.5698V22.7459C90.5698 24.9071 90.7169 25.1288 93.4562 25.1288V26.0282H85.3032V25.1288C87.8651 25.1288 88.0468 24.8773 88.0468 22.6777V10.9808Z" fill="black"/>
<path d="M96.7883 10.1538C99.0905 9.94068 100.661 9.07108 101.133 5.29431H102.042V9.82985H105.919V10.9808H102.042V22.6095C102.042 24.2975 102.557 25.1671 103.833 25.1671C104.677 25.1671 105.37 24.8773 106.101 24.3359L106.685 25.133C105.738 25.96 104.604 26.4289 103.102 26.4289C101.241 26.4289 99.5233 25.5636 99.5233 22.7544V10.9808H96.784V10.1538H96.7883Z" fill="black"/>
<path d="M114.388 3.13742C114.388 2.16126 114.531 1.87566 115.487 1.87566H118.954C121.516 1.87566 123.16 2.45113 124.181 3.28236C124.99 3.92603 125.614 5.33273 125.614 6.55613C125.614 8.28253 124.99 9.5443 123.926 10.4096C122.61 11.4924 120.563 11.957 118.041 11.957H114.384V3.13742H114.388ZM111.683 22.2472C111.683 24.8006 111.463 24.9839 108.724 24.9839V26.0325H120.637C124.437 26.0325 126.596 25.1672 128.02 23.7988C129.478 22.4305 130.067 20.6316 130.067 18.8328C130.067 16.8506 129.041 15.4098 127.721 14.4038C126.155 13.2145 124.03 12.6049 121.663 12.5325V12.46C123.965 12.136 125.501 11.4156 126.592 10.4437C127.938 9.25443 128.418 7.6687 128.418 6.30463C128.418 4.46739 127.47 3.02659 126.085 2.09306C124.112 0.797189 121.909 0.507324 118.551 0.507324H108.724V1.55169C111.463 1.55169 111.683 1.73073 111.683 4.32672V22.2472ZM114.388 13.3211H118.928C121.918 13.3211 123.93 13.8241 125.216 14.796C126.522 15.7721 127.228 17.1746 127.228 18.756C127.228 20.6316 126.674 21.9616 125.795 22.8653C124.553 24.1228 122.879 24.6642 120.278 24.6642H115.743C114.609 24.6642 114.393 24.4084 114.393 22.8951V13.3211H114.388Z" fill="black"/>
<path d="M142.223 23.1849C141.305 24.0843 140.067 25.052 138.28 25.052C137.181 25.052 136.415 24.6982 135.865 24.1866C135.316 23.6538 135.065 22.8609 135.065 21.9189C135.065 20.2649 136.091 19.3271 137.51 18.5726C138.86 17.7457 140.656 17.2384 142.227 16.8121V23.1849H142.223ZM144.745 14.4378C144.745 12.8521 144.486 11.8802 143.538 10.84C142.625 9.83405 141.344 9.43335 139.154 9.43335C137.216 9.43335 135.935 9.90225 134.987 10.4436C133.819 11.1257 133.087 12.1018 133.087 12.9629C133.087 13.5085 133.412 14.0073 134.109 14.0073C134.874 14.0073 135.208 13.6492 135.385 13.1377C135.718 12.3491 136.047 11.7352 136.523 11.3772C137.177 10.8742 137.912 10.5544 139.007 10.5544C140.215 10.5544 141.089 10.9083 141.638 11.6287C142.11 12.2425 142.223 13.321 142.223 14.1479V15.6996L140.067 16.2068C137.726 16.7098 135.904 17.4302 134.658 18.2572C133.048 19.2973 132.395 20.6017 132.395 22.2556C132.395 23.624 132.975 24.6726 133.853 25.3504C134.805 26.1091 136.047 26.4331 137.216 26.4331C139.626 26.4331 141.089 25.6019 142.326 24.4467H142.439C142.768 25.6402 143.538 26.2839 144.815 26.2839C145.762 26.2839 146.42 26.0708 147.043 25.7809L146.827 24.9539C146.528 25.1372 146.199 25.2054 145.836 25.2054C145.109 25.2054 144.741 24.4893 144.741 22.8695V14.4378H144.745Z" fill="black"/>
<path d="M163.341 22.8227C163.341 24.8389 163.492 25.1288 165.132 25.1288V26.0282H158.953V25.1288C160.71 25.1288 160.818 24.9114 160.818 22.7459V14.7235C160.818 13.3211 160.636 12.1659 159.939 11.4455C159.463 10.9808 158.81 10.7293 157.827 10.7293C156.287 10.7293 154.647 12.0977 153.188 14.0756V22.7459C153.188 24.9071 153.219 25.1288 154.937 25.1288V26.0282H148.545V25.1288C150.514 25.1288 150.661 24.9114 150.661 22.7459V14.0031C150.661 11.9186 150.479 11.6671 148.545 11.7012V10.9041C150.15 10.6569 151.392 10.2945 152.6 9.4292L152.963 9.64234L153.11 12.4174H153.188C154.647 10.5844 156.503 9.4292 158.524 9.4292C160.091 9.4292 161.229 9.82989 162.029 10.5844C162.869 11.373 163.345 12.6689 163.345 14.5743V22.8227H163.341Z" fill="black"/>
<path d="M171.909 17.1745L177.132 12.1658C178.115 11.2707 178.374 10.7293 176.617 10.7293V9.82987H182.027V10.7293C180.971 10.7677 180.387 11.0149 179.543 11.812L175.704 15.4098L181.291 23.7647C182.1 25.0222 182.901 25.1672 183.996 25.133V26.0325H179.828L173.874 16.9614L171.822 18.9436V22.7544C171.822 24.8474 171.896 25.1373 173.904 25.1373V26.0367H167.11V25.1373C169.226 25.1373 169.295 24.8474 169.295 22.7544V5.69077C169.295 3.60203 169.075 3.35053 167.11 3.35053V2.56193C168.897 2.30617 170.143 1.90973 171.494 1.08276L171.822 1.2959V17.1745H171.909Z" fill="black"/>
<path d="M36.5369 0.0045166H0V8.84967H36.5369V0.0045166Z" fill="#BBBDBE"/>
<path d="M36.5369 17.6903H0V26.5355H36.5369V17.6903Z" fill="#BBBDBE"/>
<path d="M145.369 33.4922C147.333 33.4922 148.653 34.8904 148.653 36.8256C148.653 38.6501 147.307 40.1591 145.369 40.1591C143.417 40.1591 142.071 38.6458 142.071 36.8256C142.071 34.8904 143.391 33.4922 145.369 33.4922ZM145.369 39.217C146.762 39.217 147.385 37.968 147.385 36.8299C147.385 35.6193 146.637 34.4428 145.369 34.4428C144.088 34.4428 143.339 35.6193 143.339 36.8299C143.339 37.9638 143.962 39.217 145.369 39.217Z" fill="black"/>
<path d="M150.107 31.1349H151.302V34.5152H151.328C151.695 33.927 152.34 33.4922 153.47 33.4922C155.348 33.4922 156.261 35.0054 156.261 36.7148C156.261 38.4625 155.439 40.1633 153.483 40.1633C152.327 40.1633 151.592 39.5879 151.276 39.1147H151.25V40.0141H150.107V31.1349ZM153.214 34.4428C151.921 34.4428 151.302 35.6534 151.302 36.8427C151.302 37.9041 151.86 39.217 153.206 39.217C154.487 39.217 155.019 37.806 154.993 36.8043C155.015 35.6534 154.508 34.4428 153.214 34.4428Z" fill="black"/>
<path d="M160.883 33.4922C162.847 33.4922 164.167 34.8904 164.167 36.8256C164.167 38.6501 162.821 40.1591 160.883 40.1591C158.931 40.1591 157.585 38.6458 157.585 36.8256C157.585 34.8904 158.901 33.4922 160.883 33.4922ZM160.883 39.217C162.276 39.217 162.899 37.968 162.899 36.8299C162.899 35.6193 162.151 34.4428 160.883 34.4428C159.602 34.4428 158.853 35.6193 158.853 36.8299C158.853 37.9638 159.472 39.217 160.883 39.217Z" fill="black"/>
<path d="M169.109 34.592H167.396V38.0789C167.396 38.8163 167.85 39.217 168.395 39.217C168.763 39.217 169.031 39.1062 169.204 38.9911V39.9886C168.936 40.0653 168.573 40.1634 168.192 40.1634C166.963 40.1634 166.201 39.5879 166.201 38.3133V34.592H164.743V33.6414H166.201V32.1665L167.396 31.7914V33.6414H169.109V34.592Z" fill="black"/>
<path d="M172.182 32.4563H170.84V31.1349H172.182V32.4563ZM170.914 33.6414H172.104V40.0141H170.914V33.6414Z" fill="black"/>
<path d="M178.353 34.7199C177.894 34.5323 177.44 34.4428 177.059 34.4428C175.726 34.4428 174.977 35.6193 174.977 36.8299C174.977 37.9681 175.6 39.217 177.132 39.217C177.539 39.217 178.045 39.0934 178.413 38.8547L178.504 39.9033C178.011 40.1293 177.44 40.1676 177.007 40.1676C175.055 40.1676 173.709 38.6544 173.709 36.8342C173.709 34.8989 175.029 33.5007 177.007 33.5007C177.487 33.5007 178.11 33.6116 178.452 33.748L178.353 34.7199Z" fill="black"/>
<path d="M135.035 31.1349H137.242C139.025 31.1349 140.743 31.4162 140.743 33.5391C140.743 34.6218 139.929 35.3848 138.882 35.5639V35.5894C139.28 35.7429 139.475 35.9347 139.76 36.4803L141.465 40.0184H139.994L138.613 36.9407C138.211 36.0754 137.787 36.0754 137.103 36.0754H136.329V40.0184H135.039V31.1349H135.035ZM136.324 34.95H137.423C138.648 34.95 139.375 34.4172 139.375 33.5646C139.375 32.7632 138.756 32.2517 137.566 32.2517H136.324V34.95Z" fill="black"/>
<path d="M179.846 38.7652C180.348 39.0636 181.066 39.217 181.434 39.217C182.018 39.217 182.736 38.9911 182.736 38.3048C182.736 37.1411 179.737 37.2434 179.737 35.4573C179.737 34.1316 180.811 33.4965 182.178 33.4965C182.775 33.4965 183.264 33.6073 183.766 33.7437L183.658 34.7667C183.373 34.6048 182.576 34.4428 182.278 34.4428C181.624 34.4428 181.005 34.6943 181.005 35.2186C181.005 36.5187 184 36.1436 184 38.1812C184 39.541 182.909 40.1676 181.672 40.1676C181.018 40.1676 180.356 40.1037 179.772 39.8181L179.846 38.7652Z" fill="black"/>
</svg>
